<svg width="479" height="295" viewBox="0 0 479 295" fill="none" xmlns="http://www.w3.org/2000/svg">
<rect x="8" y="188" width="461" height="97" fill="#8AC575"/>
<path d="M126.907 119.176C129.256 115.406 134.744 115.406 137.093 119.176L238.87 282.578C241.36 286.574 238.486 291.75 233.777 291.75H30.2226C25.5141 291.75 22.6404 286.574 25.1297 282.578L126.907 119.176Z" fill="#5138ED"/>
<path d="M233.06 57.1986C235.213 52.5749 241.787 52.5749 243.939 57.1986L347.139 278.88C348.99 282.857 346.087 287.412 341.699 287.412H135.3C130.913 287.412 128.009 282.857 129.861 278.88L233.06 57.1986Z" fill="#5138ED"/>
<rect x="5.10815" y="5.89539" width="468.059" height="283.209" rx="18" stroke="#AEAEAE" stroke-width="10"/>
<circle cx="384.467" cy="90.7704" r="56.7296" fill="#E7D961"/>
</svg>
