<svg width="334" height="404" viewBox="0 0 334 404" fill="none" xmlns="http://www.w3.org/2000/svg">
<rect x="5" y="5" width="306" height="373" rx="33" fill="white" stroke="#AEAEAE" stroke-width="10"/>
<line x1="70" y1="106" x2="246" y2="106" stroke="#AEAEAE" stroke-width="10"/>
<line x1="70" y1="173" x2="246" y2="173" stroke="#AEAEAE" stroke-width="10"/>
<line x1="70" y1="243" x2="246" y2="243" stroke="#AEAEAE" stroke-width="10"/>
<rect x="155" y="318" width="179" height="86" rx="20" fill="#5138ED"/>
<path d="M188.043 385V338.455H203.77C207.421 338.455 210.406 339.114 212.724 340.432C215.058 341.735 216.785 343.5 217.906 345.727C219.027 347.955 219.588 350.439 219.588 353.182C219.588 355.924 219.027 358.417 217.906 360.659C216.8 362.902 215.088 364.689 212.77 366.023C210.452 367.341 207.482 368 203.861 368H192.588V363H203.679C206.179 363 208.187 362.568 209.702 361.705C211.217 360.841 212.315 359.674 212.997 358.205C213.694 356.72 214.043 355.045 214.043 353.182C214.043 351.318 213.694 349.652 212.997 348.182C212.315 346.712 211.209 345.561 209.679 344.727C208.149 343.879 206.118 343.455 203.588 343.455H193.679V385H188.043ZM243.031 385H228.668V338.455H243.668C248.183 338.455 252.046 339.386 255.259 341.25C258.471 343.098 260.933 345.758 262.645 349.227C264.357 352.682 265.213 356.818 265.213 361.636C265.213 366.485 264.349 370.659 262.622 374.159C260.895 377.644 258.38 380.326 255.077 382.205C251.774 384.068 247.759 385 243.031 385ZM234.304 380H242.668C246.516 380 249.705 379.258 252.236 377.773C254.766 376.288 256.652 374.174 257.895 371.432C259.137 368.689 259.759 365.424 259.759 361.636C259.759 357.879 259.145 354.644 257.918 351.932C256.69 349.205 254.857 347.114 252.418 345.659C249.978 344.189 246.94 343.455 243.304 343.455H234.304V380ZM274.668 385V338.455H302.577V343.455H280.304V359.182H300.486V364.182H280.304V385H274.668Z" fill="white"/>
</svg>
